<?xml version="1.0" encoding="UTF-8" standalone="no"?> <svg id="Layer_1" data-name="Layer 1" xmlns="http://www.w3.org/2000/svg" viewBox="0 0 24 24"><title>Artboard 3</title><path d="M5,1V3H1V20a3,3,0,0,0,3,3H19.24A3.77,3.77,0,0,0,23,19.24V1ZM3,20V5H5V20a1,1,0,0,1-2,0Zm18-.76A1.76,1.76,0,0,1,19.24,21H6.82A3,3,0,0,0,7,20V3H21Z"/><rect x="11" y="5" width="8" height="2"/><rect x="9" y="9" width="10" height="2"/><rect x="9" y="13" width="10" height="2"/><rect x="9" y="17" width="10" height="2"/></svg>